<svg id="Layer_1" data-name="Layer 1" xmlns="http://www.w3.org/2000/svg" viewBox="0 0 1920 1080"><defs><style>.cls-1{fill:#4f4a51;}.cls-2{font-size:257.24px;letter-spacing:0.04em;}.cls-2,.cls-4,.cls-5,.cls-8,.cls-9{fill:#1a1f23;}.cls-2,.cls-5,.cls-8,.cls-9{font-family:MyriadPro-Regular, Myriad Pro;}.cls-3{letter-spacing:0.06em;}.cls-5{font-size:154.35px;letter-spacing:0.28em;}.cls-6{letter-spacing:0.2em;}.cls-7{letter-spacing:0.28em;}.cls-8,.cls-9{font-size:102.9px;}.cls-8{letter-spacing:0.28em;}.cls-9{letter-spacing:0.28em;}</style></defs><title>belgic_confession</title><rect class="cls-1" width="1920" height="1080"/><text class="cls-2" transform="translate(183.03 641.91)">C<tspan class="cls-3" x="160.52" y="0">ONFESSION</tspan></text><path class="cls-4" d="M178.22,259.35q-21.37,12.61-42.42,26l-8.16-12.86Q179.39,239.61,233,211.28l7.12,13.47q-21.9,11.58-43.51,23.92L257.85,355.9q-8.48,4.85-16.91,9.81Z"/><path class="cls-4" d="M329.19,164.62l23.49,53.07q34.56-15.3,69.69-28.76Q412,161.84,401.62,134.74q9.86-3.78,19.74-7.41l47.83,130.2q-9,3.32-18,6.74L428,203.54Q393.22,216.85,359,232l26.32,59.47q-8.71,3.87-17.4,7.85-28.92-63-57.86-126.06Q319.61,168.87,329.19,164.62Z"/><path class="cls-4" d="M616.25,145.64q-28.85,6.78-57.45,14.74l13.41,48.18Q603,200,634.08,192.83q1.68,7.32,3.37,14.64-39.88,9.19-79.33,20.74-19.51-66.56-39-133.12,41.61-12.18,83.73-22,1.71,7.31,3.41,14.63-31.72,7.38-63.19,16.14l11.76,42.23q28.9-8.06,58-14.9Q614.55,138.43,616.25,145.64Z"/><path class="cls-4" d="M813.26,41.18c8.77-2.46,22.82-4.86,37.21-5.8,20.53-1.33,33.93,1.22,44,7.83,8.41,5,13.53,13.15,13.84,24.05.36,13.38-9.13,25.33-24.91,31.41l0,.41c14.67,2.59,31.85,13.07,32.29,33.65.29,11.94-4.52,21.1-11.65,28.14-9.89,9.2-26,13.91-49.51,15.53a270.62,270.62,0,0,1-29.05.66Q819.41,109.13,813.26,41.18ZM838.07,96.1q9-.69,17.91-1.27c20.81-1.33,32.65-11.61,32.13-25-.64-16.23-15-22.1-35.57-20.76-9.35.61-14.67,1.64-17.89,2.5Zm5.1,66.28a115.65,115.65,0,0,0,15.86-.31c19.43-1.29,37.12-8.74,36.4-28.89-.66-18.92-18.76-26.11-40.15-24.69q-8.09.53-16.17,1.15Q841.15,136,843.17,162.38Z"/><path class="cls-4" d="M1082.66,112.65q-29.36-2.64-58.78-4.09-1.23,25-2.47,49.94,31.67,1.58,63.26,4.55l-1.41,15q-40.56-3.84-81.27-5.3l5-138.62q42.95,1.56,85.79,5.5l-1.38,15q-32.27-3-64.63-4.57l-2.17,43.78q29.73,1.47,59.38,4.13Q1083.33,105.27,1082.66,112.65Z"/><path class="cls-4" d="M1188.53,51.44q10.17,1.59,20.33,3.31l-20.7,121.94q30.93,5.25,61.64,11.87-1.58,7.33-3.16,14.68-39.57-8.52-79.49-14.74Q1177.84,120,1188.53,51.44Z"/><path class="cls-4" d="M1425.92,248.08a160.64,160.64,0,0,1-45.13-7.33c-21.06-6.79-36.9-17-47.34-33.39-9.11-14.51-12.16-34.44-6.66-55.35,10.42-39.89,50.06-61.37,101.81-44.61,17.74,5.78,30.37,13.95,35.91,19q-4.8,6-9.57,12.12c-6.92-5.92-16.14-12-31.45-17-37.11-12.05-67.17,1.67-76.32,35.16-9.3,34,6.84,59.83,39.42,70.35,11.89,3.85,20.51,5.07,25.35,4.56l13.45-39.12q-14.69-5.06-29.44-9.77,2.21-6.87,4.4-13.72,24.15,7.73,48.09,16.31Q1437.18,216.71,1425.92,248.08Z"/><path class="cls-4" d="M1582,168.26l-56.88,126.51q-8.7-3.91-17.44-7.71l55.14-127.27Q1572.45,163.95,1582,168.26Z"/><path class="cls-4" d="M1703.33,385.63c-7.83-1.07-21.64-5.88-37.29-15.2-36-21.46-52.52-57.68-31.64-98.15,19.84-38.52,64.52-48.85,108.8-22.36,17.66,10.61,26.7,20.75,30.12,25.84q-6.08,4.78-12.13,9.61c-5-7.05-13.43-15.19-25.09-22.19-33.07-19.81-65.39-13.4-82.6,18.63-16.1,30-7.76,59,23.7,77.79,10.21,6.11,21.73,10.59,30.3,11.86Q1705.43,378.56,1703.33,385.63Z"/><text class="cls-5" transform="translate(847.72 861.61)">OF<tspan class="cls-6"><tspan x="-159.98" y="160.78">F</tspan><tspan class="cls-7" x="-53.63" y="160.78">AITH</tspan></tspan></text><text class="cls-8" transform="translate(417.38 800.39)">1561</text><text class="cls-9" transform="translate(1195.54 800.39)">1561</text></svg>